<svg xmlns="http://www.w3.org/2000/svg" width="32" height="32"><g color="#000"><g opacity=".15"><path style="isolation:auto;mix-blend-mode:normal" d="M15.5 8.521a7.5 7.5 0 0 0-5.996 3.729 7.5 7.5 0 0 0-.233 7.045l6.229-3.598V8.521z" overflow="visible" transform="matrix(.80042 0 0 .80115 2.693 3.176)"/><path fill-opacity=".976" d="M16.5 8.525v7.172l6.23 3.598a7.5 7.5 0 0 0-.234-7.045A7.5 7.5 0 0 0 16.5 8.525Z" overflow="visible" transform="matrix(.80042 0 0 .80115 2.693 3.176)" style="isolation:auto;mix-blend-mode:normal"/><path style="isolation:auto;mix-blend-mode:normal" d="m16 16.563-6.232 3.6A7.5 7.5 0 0 0 16 23.5a7.5 7.5 0 0 0 6.23-3.34L16 16.562Z" overflow="visible" transform="matrix(.80042 0 0 .80115 2.693 3.176)"/></g><path d="M12.454 1022.362v2.85a11.455 11.455 0 0 0-3.549 1.455l-2.004-2.002-3.598 3.598 2.008 2.008a11.455 11.455 0 0 0-1.467 3.545H1v5.092h2.85a11.455 11.455 0 0 0 1.455 3.549l-2.002 2.005 3.598 3.598 2.008-2.009a11.455 11.455 0 0 0 3.545 1.467v2.844h5.092v-2.85a11.455 11.455 0 0 0 3.549-1.455l2.004 2.003 3.598-3.598-2.008-2.009a11.455 11.455 0 0 0 1.467-3.545H29v-5.092h-2.85a11.455 11.455 0 0 0-1.455-3.549l2.002-2.004-3.598-3.598-2.008 2.008a11.455 11.455 0 0 0-3.545-1.467v-2.844h-5.092zm2.546 5.793a8.207 8.207 0 0 1 8.207 8.207A8.207 8.207 0 0 1 15 1044.57a8.207 8.207 0 0 1-8.207-8.207 8.207 8.207 0 0 1 8.207-8.207z" opacity=".15" overflow="visible" style="isolation:auto;mix-blend-mode:normal" transform="translate(.5 -1020.362)"/><path fill="#4bbfeb" d="M13.454 1022.362v2.85a11.455 11.455 0 0 0-3.549 1.455l-2.004-2.002-3.598 3.598 2.008 2.008a11.455 11.455 0 0 0-1.467 3.545H2v5.092h2.85a11.455 11.455 0 0 0 1.455 3.549l-2.002 2.005 3.598 3.598 2.008-2.009a11.455 11.455 0 0 0 3.545 1.467v2.844h5.092v-2.85a11.455 11.455 0 0 0 3.549-1.455l2.004 2.003 3.598-3.598-2.008-2.009a11.455 11.455 0 0 0 1.467-3.545H30v-5.092h-2.85a11.455 11.455 0 0 0-1.455-3.549l2.002-2.004-3.598-3.598-2.008 2.008a11.455 11.455 0 0 0-3.545-1.467v-2.844h-5.092zm2.546 5.793a8.207 8.207 0 0 1 8.207 8.207A8.207 8.207 0 0 1 16 1044.57a8.207 8.207 0 0 1-8.207-8.207 8.207 8.207 0 0 1 8.207-8.207z" overflow="visible" style="isolation:auto;mix-blend-mode:normal" transform="translate(.5 -1020.362)"/><path fill="#f05542" d="M15.5 8.521a7.5 7.5 0 0 0-5.996 3.729 7.5 7.5 0 0 0-.233 7.045l6.229-3.598V8.521z" overflow="visible" transform="matrix(.80042 0 0 .80115 3.693 3.176)" style="isolation:auto;mix-blend-mode:normal"/><path fill="#f8b74e" fill-opacity=".976" d="M16.5 8.525v7.172l6.23 3.598a7.5 7.5 0 0 0-.234-7.045A7.5 7.5 0 0 0 16.5 8.525Z" overflow="visible" transform="matrix(.80042 0 0 .80115 3.693 3.176)" style="isolation:auto;mix-blend-mode:normal"/><path fill="#4bbfeb" d="m16 16.563-6.232 3.6A7.5 7.5 0 0 0 16 23.5a7.5 7.5 0 0 0 6.23-3.34L16 16.562Z" overflow="visible" transform="matrix(.80042 0 0 .80115 3.693 3.176)" style="isolation:auto;mix-blend-mode:normal"/></g></svg>